<?xml version="1.0" encoding="UTF-8"?>
<svg xmlns="http://www.w3.org/2000/svg" xmlns:xlink="http://www.w3.org/1999/xlink" width="600pt" height="125.62pt" viewBox="0 0 600 125.62" version="1.1">
<defs>
<clipPath id="clip1">
  <path d="M 353 106 L 368 106 L 368 125.621094 L 353 125.621094 Z M 353 106 "/>
</clipPath>
<clipPath id="clip2">
  <path d="M 419 106 L 433 106 L 433 125.621094 L 419 125.621094 Z M 419 106 "/>
</clipPath>
<clipPath id="clip3">
  <path d="M 491 106 L 506 106 L 506 125.621094 L 491 125.621094 Z M 491 106 "/>
</clipPath>
<clipPath id="clip4">
  <path d="M 525 106 L 539 106 L 539 125.621094 L 525 125.621094 Z M 525 106 "/>
</clipPath>
<clipPath id="clip5">
  <path d="M 541 106 L 555 106 L 555 125.621094 L 541 125.621094 Z M 541 106 "/>
</clipPath>
<clipPath id="clip6">
  <path d="M 570 106 L 585 106 L 585 125.621094 L 570 125.621094 Z M 570 106 "/>
</clipPath>
<clipPath id="clip7">
  <path d="M 586 106 L 600 106 L 600 125.621094 L 586 125.621094 Z M 586 106 "/>
</clipPath>
<clipPath id="clip8">
  <path d="M 386 106 L 401 106 L 401 125.621094 L 386 125.621094 Z M 386 106 "/>
</clipPath>
<clipPath id="clip9">
  <path d="M 436 106 L 448 106 L 448 125.621094 L 436 125.621094 Z M 436 106 "/>
</clipPath>
<clipPath id="clip10">
  <path d="M 473 106 L 484 106 L 484 125.621094 L 473 125.621094 Z M 473 106 "/>
</clipPath>
<clipPath id="clip11">
  <path d="M 508 106 L 522 106 L 522 125.621094 L 508 125.621094 Z M 508 106 "/>
</clipPath>
<clipPath id="clip12">
  <path d="M 557 106 L 569 106 L 569 125.621094 L 557 125.621094 Z M 557 106 "/>
</clipPath>
<clipPath id="clip13">
  <path d="M 369 106 L 384 106 L 384 125.621094 L 369 125.621094 Z M 369 106 "/>
</clipPath>
<clipPath id="clip14">
  <path d="M 403 106 L 418 106 L 418 125.621094 L 403 125.621094 Z M 403 106 "/>
</clipPath>
<clipPath id="clip15">
  <path d="M 456 106 L 470 106 L 470 125.621094 L 456 125.621094 Z M 456 106 "/>
</clipPath>
</defs>
<g id="surface1">
<path style=" stroke:none;fill-rule:nonzero;fill:rgb(20.799255%,23.498535%,48.199463%);fill-opacity:1;" d="M 297.816406 47.460938 C 296.898438 52.851563 295.417969 58.128906 293.617188 63.28125 C 291.269531 69.921875 288.523438 76.609375 283.824219 81.96875 C 281.953125 83.96875 279.476563 85.878906 276.574219 85.605469 C 273.933594 85.59375 272.246094 82.933594 272.109375 80.527344 C 271.558594 74.308594 273.5625 68.25 275.605469 62.464844 C 278.140625 55.949219 281.289063 49.621094 285.328125 43.90625 C 286.945313 41.75 288.867188 39.546875 291.554688 38.78125 C 293.386719 38.082031 295.480469 38.800781 296.636719 40.347656 C 298.324219 42.304688 298 45.074219 297.816406 47.460938 Z M 206.480469 53.085938 C 205.507813 59.097656 203.601563 64.910156 201.445313 70.582031 C 199.226563 76.175781 196.824219 81.828125 192.929688 86.480469 C 191.269531 88.394531 189.363281 90.273438 186.882813 91.023438 C 184.8125 91.824219 182.058594 91.207031 180.953125 89.171875 C 180.234375 88.058594 180.496094 86.628906 180.585938 85.386719 C 181.269531 81.578125 182.386719 77.863281 183.449219 74.148438 C 186.003906 65.5625 187.910156 56.582031 192.636719 48.851563 C 194.460938 45.757813 197.222656 42.976563 200.855469 42.207031 C 202.679688 41.730469 204.566406 42.929688 205.496094 44.460938 C 207.144531 47.007813 206.917969 50.21875 206.480469 53.085938 Z M 427.445313 42.53125 C 431.386719 39.0625 436.480469 36.601563 441.8125 36.746094 C 444.0625 36.804688 446.589844 37.976563 447.15625 40.339844 C 448.265625 45.339844 445.800781 50.421875 442.308594 53.890625 C 435.078125 61.117188 424.691406 64.351563 414.671875 64.707031 C 417.074219 56.476563 421.011719 48.378906 427.445313 42.53125 Z M 564.347656 79.859375 C 561.296875 83.011719 558.191406 86.257813 554.269531 88.316406 C 552.875 89.265625 551.742188 87.796875 550.734375 87.027344 C 550.742188 85.285156 550.824219 83.527344 551.394531 81.863281 C 555.3125 69.03125 559.390625 56.253906 563.34375 43.433594 C 564.164063 40.664063 564.964844 37.621094 564.066406 34.777344 C 563.285156 32.472656 560.746094 31.53125 558.503906 31.589844 C 553.597656 31.644531 549.035156 33.847656 544.859375 36.222656 C 535.152344 41.753906 526.84375 49.308594 518.613281 56.777344 C 523.769531 38.214844 529.328125 19.761719 534.660156 1.246094 C 532.859375 1.300781 530.992188 1.011719 529.261719 1.601563 C 522.378906 3.964844 515.128906 5.226563 507.851563 5.453125 C 507.628906 6.617188 507.402344 7.785156 507.160156 8.945313 C 510.96875 9.132813 514.925781 8.441406 518.621094 9.644531 C 520.570313 11.167969 519.976563 13.957031 519.464844 16.042969 C 514.585938 32.894531 509.699219 49.742188 504.804688 66.585938 C 504.304688 68.492188 503.859375 70.488281 502.59375 72.058594 C 497.339844 79.253906 490.597656 85.914063 482.011719 88.867188 C 474.972656 91.328125 466.851563 86.785156 464.417969 79.941406 C 462.855469 75.589844 463.25 70.832031 463.859375 66.335938 C 465.472656 58.042969 469.386719 50.191406 475.074219 43.933594 C 479.8125 38.871094 486.765625 34.867188 493.914063 36.242188 C 495.101563 36.589844 496.753906 37.644531 496.246094 39.097656 C 495.359375 41.464844 493.589844 43.605469 493.769531 46.261719 C 493.5625 48.78125 495.308594 51.292969 497.796875 51.847656 C 502.621094 53.246094 507.976563 48.910156 507.566406 43.886719 C 507.855469 39.699219 505.140625 35.816406 501.488281 33.976563 C 495.730469 30.957031 488.855469 31.242188 482.667969 32.570313 C 463.480469 37.285156 449.296875 56.777344 450.257813 76.429688 C 443.53125 81.695313 436.316406 86.640625 428.097656 89.230469 C 423.191406 90.710938 417.1875 89.554688 414.195313 85.113281 C 411.175781 80.363281 412.292969 74.453125 413.550781 69.316406 C 425.910156 68.191406 438.765625 65.695313 448.945313 58.140625 C 453.398438 54.78125 457.464844 49.789063 457.273438 43.910156 C 457.292969 41.84375 457.316406 39.640625 456.144531 37.839844 C 453.921875 33.800781 449.171875 32.089844 444.824219 31.652344 C 436.949219 30.964844 428.941406 33.195313 422.335938 37.460938 C 413.121094 43.265625 406.300781 52.421875 402.488281 62.550781 C 400.867188 67.011719 399.683594 71.710938 399.746094 76.484375 C 399.960938 78.285156 398.3125 79.410156 397.3125 80.652344 C 394.871094 83.136719 392.5625 85.9375 389.355469 87.449219 C 387.476563 88.367188 384.828125 88.011719 383.882813 85.960938 C 382.824219 82.425781 384.230469 78.828125 385.074219 75.410156 C 388.664063 62.226563 392.050781 48.976563 395.757813 35.828125 C 399.679688 35.816406 403.597656 35.828125 407.523438 35.820313 C 407.902344 34.28125 408.226563 32.730469 408.613281 31.1875 C 404.828125 31.148438 401.046875 31.183594 397.261719 31.164063 C 398.949219 23.742188 400.839844 16.355469 402.820313 9.007813 C 401.4375 9 400.058594 8.992188 398.683594 8.980469 C 397.035156 12.039063 395.378906 15.101563 393.328125 17.902344 C 388.8125 24.40625 382.363281 29.816406 374.578125 31.800781 C 372.460938 32.90625 370.402344 31.300781 368.265625 31.148438 C 364.527344 30.78125 360.273438 32.238281 358.398438 35.691406 C 357.019531 38.546875 356.8125 42.390625 359.078125 44.867188 C 360.875 47.074219 364.085938 48.152344 364.9375 51.066406 C 365.316406 54.074219 363.953125 56.9375 362.910156 59.683594 C 360.265625 65.769531 357.269531 71.699219 354.148438 77.554688 C 351.617188 67.183594 350.179688 56.574219 347.644531 46.203125 C 346.449219 41.351563 345.40625 36.324219 342.757813 32.019531 C 336.140625 32.148438 329.65625 33.796875 323.078125 34.363281 C 322.90625 34.101563 322.558594 33.585938 322.386719 33.332031 C 316.148438 33.339844 309.910156 33.351563 303.675781 33.328125 C 302.933594 35.761719 302.335938 38.238281 301.601563 40.671875 C 300.519531 37.894531 299.503906 34.777344 296.828125 33.109375 C 292.34375 30.300781 286.605469 30.773438 281.8125 32.507813 C 274.414063 35.257813 268.3125 40.695313 263.445313 46.785156 C 256.289063 55.730469 251.605469 66.738281 250.695313 78.191406 C 249.625 80.742188 247.683594 82.992188 245.503906 84.699219 C 243.660156 85.640625 241.808594 83.613281 242.195313 81.796875 C 242.492188 79.367188 243.429688 77.085938 243.972656 74.71875 C 250.578125 49.8125 257.195313 24.910156 263.804688 0.00390625 C 253.597656 2.261719 243.191406 3.371094 232.796875 4.316406 C 232.796875 5.351563 232.796875 6.394531 232.808594 7.4375 C 234.9375 7.65625 237.660156 7.175781 239.121094 9.132813 C 240.410156 10.558594 239.65625 12.597656 239.34375 14.253906 C 236.417969 26.160156 232.9375 37.921875 229.878906 49.800781 C 229.699219 50.621094 229.332031 51.386719 228.816406 52.050781 C 229.425781 45.480469 228.101563 37.539063 222.125 33.695313 C 216.136719 29.960938 208.066406 30.417969 202.199219 34.175781 C 197.359375 37.089844 193.824219 41.523438 190.144531 45.699219 C 191.15625 41.304688 192.6875 37.058594 193.804688 32.699219 C 189.328125 33.613281 184.777344 34.113281 180.265625 34.824219 C 174.65625 35.214844 169.117188 36.367188 163.476563 36.390625 C 163.449219 37.445313 163.429688 38.492188 163.414063 39.539063 C 165.410156 39.71875 167.671875 39.613281 169.335938 40.921875 C 171.019531 42.390625 170.628906 44.828125 170.164063 46.761719 C 165.007813 66.78125 159.839844 86.796875 154.671875 106.816406 C 153.769531 110.054688 153.101563 113.539063 151.027344 116.269531 C 149.464844 118.21875 146.800781 118.003906 144.570313 118.308594 C 144.554688 119.492188 144.546875 120.675781 144.546875 121.867188 C 157.117188 121.878906 169.691406 121.875 182.261719 121.875 C 182.277344 120.789063 182.296875 119.707031 182.324219 118.621094 C 179.867188 118.003906 176.847656 118.449219 174.933594 116.5 C 173.128906 113.976563 174.105469 110.679688 174.730469 107.914063 C 176.136719 103.035156 177.285156 98.085938 178.925781 93.28125 C 181.105469 94.660156 183.46875 95.847656 186.035156 96.304688 C 192.820313 97.386719 199.898438 95.738281 205.652344 92.007813 C 213.921875 86.695313 219.601563 78.355469 224.238281 69.875 C 223.226563 75.039063 221.597656 80.085938 220.875 85.308594 C 220.742188 88.976563 222.070313 93.109375 225.351563 95.117188 C 228.378906 97.089844 232.210938 96.710938 235.636719 96.433594 C 242.1875 95.160156 247.042969 90.058594 251.058594 85.070313 C 252 87.488281 252.925781 89.996094 254.730469 91.929688 C 257.910156 95.59375 262.980469 96.871094 267.671875 96.597656 C 274.136719 96.644531 280.117188 93.191406 284.386719 88.53125 C 286.882813 85.996094 288.609375 82.863281 290.832031 80.109375 C 290.234375 83.609375 289.761719 87.1875 290.234375 90.742188 C 290.910156 93.496094 293.355469 95.566406 296.09375 96.132813 C 300.796875 97.191406 305.949219 96.597656 310.117188 94.085938 C 315.972656 90.582031 319.914063 84.792969 323.433594 79.101563 C 322.351563 78.335938 321.265625 77.578125 320.164063 76.855469 C 318.476563 79.273438 316.894531 81.800781 314.769531 83.871094 C 313.648438 84.972656 311.96875 86.164063 310.367188 85.355469 C 309.058594 84.3125 308.898438 82.449219 309.433594 80.957031 C 313.097656 66.921875 317.195313 53.003906 321.28125 39.089844 C 321.496094 39.125 321.925781 39.183594 322.136719 39.214844 C 324.523438 40.902344 325.1875 43.996094 326.070313 46.613281 C 329.230469 58.363281 331.347656 70.371094 333.402344 82.351563 C 334.296875 88.050781 335.476563 93.753906 335.367188 99.554688 C 335.3125 102.242188 333.738281 104.566406 332.105469 106.574219 C 330.742188 108.105469 329.175781 109.972656 326.9375 109.925781 C 324.3125 109.511719 322.359375 107.519531 320.046875 106.394531 C 316.199219 104.210938 310.894531 104.394531 307.539063 107.414063 C 303.621094 110.644531 303.941406 117.792969 308.363281 120.445313 C 311.351563 122.425781 315.117188 122.742188 318.597656 122.5 C 325.472656 121.824219 331.234375 117.507813 336.109375 112.917969 C 344.1875 104.765625 350.5625 95.140625 356.546875 85.398438 C 363.191406 74.523438 369.445313 63.335938 373.988281 51.394531 C 375.765625 46.445313 377.492188 41.03125 375.746094 35.828125 C 378.628906 35.832031 381.511719 35.789063 384.394531 35.867188 C 380.929688 49.398438 377.167969 62.847656 373.597656 76.347656 C 372.660156 80.097656 371.316406 83.828125 371.335938 87.738281 C 371.28125 90.496094 372.4375 93.363281 374.683594 95.039063 C 377.789063 97.207031 381.972656 96.730469 385.296875 95.308594 C 390.230469 93.050781 394.328125 89.300781 397.9375 85.316406 C 398.582031 84.71875 399.042969 83.761719 399.972656 83.585938 C 401.050781 87.003906 402.414063 90.558594 405.355469 92.8125 C 410.683594 97.25 418.175781 97.035156 424.632813 95.960938 C 434.644531 94.003906 443.546875 88.5 451.402344 82.199219 C 453.191406 86.902344 456.390625 91.109375 460.773438 93.660156 C 466.246094 96.914063 472.960938 97.0625 479.085938 96.023438 C 487.230469 94.625 494.183594 89.585938 499.722656 83.664063 C 498.78125 88.035156 497.226563 92.238281 496.148438 96.570313 C 499.886719 96.144531 503.636719 96.46875 507.378906 96.59375 C 510.285156 87.425781 512.847656 78.140625 515.699219 68.953125 C 517.886719 62.765625 522.808594 58.144531 527.644531 53.957031 C 532.59375 49.734375 537.652344 45.503906 543.492188 42.5625 C 545.527344 41.546875 548.171875 40.695313 550.273438 41.980469 C 552.257813 43.667969 551.039063 46.371094 550.546875 48.449219 C 546.820313 60.484375 543.105469 72.519531 539.382813 84.558594 C 538.605469 87.117188 537.4375 89.726563 537.898438 92.457031 C 538.273438 94.355469 539.886719 95.804688 541.742188 96.214844 C 545.273438 97.136719 549.011719 96.054688 552.164063 94.394531 C 557.871094 91.328125 562.414063 86.578125 566.683594 81.773438 C 565.890625 81.144531 565.109375 80.503906 564.347656 79.859375 "/>
<path style=" stroke:none;fill-rule:nonzero;fill:rgb(20.799255%,23.498535%,48.199463%);fill-opacity:1;" d="M 137.550781 45.316406 C 135.90625 42.5625 134.128906 39.796875 131.488281 37.886719 C 124.582031 32.59375 115.578125 31.429688 107.144531 31.023438 C 100.070313 31.113281 92.996094 31.976563 86.121094 33.597656 C 83.996094 34.328125 82.394531 32.253906 80.648438 31.40625 C 88.660156 27.835938 97.234375 25.640625 105.90625 24.449219 C 113.828125 23.886719 122.328125 24.027344 129.3125 28.308594 C 135.070313 31.761719 138.371094 38.675781 137.550781 45.316406 Z M 125.320313 54.859375 C 123.246094 64.234375 117.21875 72.101563 110.695313 78.894531 C 99.519531 89.910156 85.625 98.175781 70.609375 102.730469 C 63.488281 104.796875 56.027344 106.15625 48.609375 105.328125 C 43.925781 104.582031 38.949219 102.960938 36.003906 99.003906 C 32.96875 95.066406 32.71875 89.699219 33.960938 85.042969 C 35.855469 78.042969 39.847656 71.734375 44.730469 66.433594 C 44.808594 74.132813 44.742188 81.832031 44.761719 89.53125 C 44.765625 91.8125 45.09375 94.28125 46.707031 96.03125 C 48.6875 97.949219 51.800781 98.84375 54.414063 97.773438 C 56.054688 97.125 57.519531 96.125 59.046875 95.273438 C 76.519531 85.113281 93.992188 74.960938 111.484375 64.839844 C 113.664063 63.578125 116.3125 62.445313 117.242188 59.886719 C 118.65625 56.855469 117.109375 53.0625 114.25 51.5 C 106.324219 47.109375 98.324219 42.839844 90.425781 38.390625 C 96.125 36.355469 102.273438 35.683594 108.296875 35.957031 C 113.8125 36.160156 119.789063 38.011719 123.136719 42.671875 C 125.722656 46.144531 125.996094 50.730469 125.320313 54.859375 Z M 82.332031 105.617188 C 71.371094 110.925781 59.601563 114.9375 47.402344 115.90625 C 43.191406 116.554688 38.9375 115.871094 34.773438 115.191406 C 29.730469 114.125 24.664063 111.808594 21.488281 107.609375 C 17.351563 102.148438 17.0625 94.515625 19.390625 88.253906 C 19.632813 92.902344 21.375 97.527344 24.851563 100.726563 C 30.964844 106.539063 39.695313 108.375 47.851563 108.90625 C 61.984375 109.566406 76.058594 106.324219 89.140625 101.140625 C 90.058594 100.792969 91.007813 100.503906 91.957031 100.230469 C 88.933594 102.339844 85.625 103.980469 82.332031 105.617188 Z M 57.949219 28.40625 C 59.917969 28.136719 61.5 29.484375 63.097656 30.382813 C 75.488281 37.78125 87.84375 45.246094 100.234375 52.640625 C 101.78125 53.484375 103.148438 55.042969 103.019531 56.90625 C 103.210938 59.015625 101.574219 60.699219 99.808594 61.558594 C 86.816406 69.019531 73.902344 76.625 60.902344 84.082031 C 58.464844 85.804688 55.492188 84.378906 53.824219 82.3125 C 53.476563 80.589844 53.347656 78.828125 53.394531 77.070313 C 53.128906 62.855469 53.269531 48.636719 53.164063 34.421875 C 52.851563 31.589844 55.046875 28.601563 57.949219 28.40625 Z M 150.5 33.734375 C 146.199219 27.515625 139.097656 23.949219 132.003906 21.914063 C 121.804688 19.140625 111.074219 19.210938 100.628906 20.234375 C 91.078125 21.386719 81.667969 23.601563 72.558594 26.675781 C 67.351563 23.460938 62.03125 20.425781 56.808594 17.246094 C 53.875 15.203125 49.390625 15.308594 46.875 17.972656 C 45.296875 19.429688 44.710938 21.632813 44.753906 23.71875 C 44.753906 28.800781 44.773438 33.882813 44.761719 38.964844 C 38.90625 42.496094 33.113281 46.152344 27.765625 50.414063 C 18.414063 57.84375 9.78125 66.585938 4.234375 77.269531 C 0.808594 84.082031 -1.257813 92.089844 0.851563 99.625 C 2.699219 106.773438 8.457031 112.28125 14.984375 115.367188 C 25.539063 120.398438 37.570313 121.019531 49.066406 120.324219 C 61.503906 119.425781 73.746094 116.488281 85.46875 112.265625 C 103.144531 105.785156 119.949219 96.425781 133.886719 83.675781 C 142.414063 75.601563 150.335938 66.101563 153.472656 54.554688 C 155.476563 47.621094 154.722656 39.710938 150.5 33.734375 "/>
<g clip-path="url(#clip1)" clip-rule="nonzero">
<path style=" stroke:none;fill-rule:nonzero;fill:rgb(20.799255%,23.498535%,48.199463%);fill-opacity:1;" d="M 355.785156 107.164063 C 358.960938 105.730469 362.71875 106.015625 365.824219 107.503906 C 366.363281 108.882813 366.597656 110.351563 366.675781 111.828125 C 365.707031 111.832031 364.753906 111.84375 363.800781 111.863281 C 363.410156 110.699219 363.332031 109.273438 362.242188 108.523438 C 360.910156 108.242188 359.539063 108.375 358.203125 108.390625 C 357.25 109.476563 356.058594 111.050781 357.351563 112.390625 C 359.695313 114.652344 363.238281 114.960938 365.773438 116.957031 C 367.183594 118.460938 367.648438 120.847656 366.605469 122.683594 C 365.769531 124.789063 363.308594 125.277344 361.3125 125.527344 C 358.640625 125.71875 355.308594 125.527344 353.714844 123.027344 C 353.1875 121.8125 353.160156 120.476563 353.019531 119.183594 C 354.148438 119.148438 355.289063 119.125 356.433594 119.113281 C 356.378906 120.648438 356.578125 122.179688 357.699219 123.332031 C 359.273438 123.476563 360.859375 123.449219 362.441406 123.3125 C 363.601563 122.179688 364.464844 120.25 363.273438 118.839844 C 360.933594 116.800781 357.6875 116.328125 355.21875 114.5 C 352.835938 112.730469 353.078125 108.511719 355.785156 107.164063 "/>
</g>
<g clip-path="url(#clip2)" clip-rule="nonzero">
<path style=" stroke:none;fill-rule:nonzero;fill:rgb(20.799255%,23.498535%,48.199463%);fill-opacity:1;" d="M 420.484375 108.558594 C 423.234375 105.742188 427.78125 105.714844 431.214844 107.164063 C 432.988281 108.042969 432.960938 110.109375 432.972656 111.816406 C 432.019531 111.828125 431.070313 111.84375 430.136719 111.863281 C 429.777344 110.695313 429.71875 109.273438 428.644531 108.503906 C 427.304688 108.261719 425.945313 108.375 424.601563 108.402344 C 424.101563 109.179688 423.246094 109.855469 423.257813 110.855469 C 423.140625 114.628906 423.167969 118.40625 423.335938 122.175781 C 424.738281 123.4375 426.847656 124.039063 428.5625 123.003906 C 429.683594 122.054688 429.75 120.492188 430.105469 119.171875 C 431.054688 119.191406 432.007813 119.207031 432.960938 119.226563 C 432.925781 121.089844 433.042969 123.460938 431.15625 124.53125 C 428.5 125.894531 425.21875 125.925781 422.480469 124.78125 C 420.53125 123.945313 419.816406 121.695313 419.964844 119.722656 C 420.089844 116.003906 419.609375 112.21875 420.484375 108.558594 "/>
</g>
<g clip-path="url(#clip3)" clip-rule="nonzero">
<path style=" stroke:none;fill-rule:nonzero;fill:rgb(20.799255%,23.498535%,48.199463%);fill-opacity:1;" d="M 494.75 106.992188 C 497.558594 105.964844 500.816406 105.914063 503.574219 107.140625 C 505.355469 107.917969 505.066406 110.246094 505.417969 111.820313 C 504.402344 111.832031 503.398438 111.84375 502.394531 111.855469 C 501.972656 110.730469 501.988281 109.242188 500.851563 108.546875 C 499.507813 108.230469 498.121094 108.386719 496.769531 108.402344 C 495.847656 109.46875 494.910156 111.003906 495.894531 112.34375 C 498.300781 114.804688 502.269531 114.847656 504.664063 117.316406 C 506.648438 119.539063 505.992188 123.695313 503.066406 124.75 C 500.144531 125.890625 496.675781 125.964844 493.839844 124.554688 C 491.859375 123.507813 491.859375 121.121094 491.683594 119.183594 C 492.777344 119.148438 493.886719 119.125 494.992188 119.113281 C 494.976563 120.648438 495.179688 122.191406 496.324219 123.332031 C 497.894531 123.472656 499.472656 123.453125 501.054688 123.316406 C 502.164063 122.167969 503.152344 120.25 501.875 118.839844 C 499.464844 116.660156 495.941406 116.328125 493.488281 114.203125 C 491.285156 112.21875 491.941406 108.078125 494.75 106.992188 "/>
</g>
<g clip-path="url(#clip4)" clip-rule="nonzero">
<path style=" stroke:none;fill-rule:nonzero;fill:rgb(20.799255%,23.498535%,48.199463%);fill-opacity:1;" d="M 527.222656 107.367188 C 530.195313 105.914063 533.996094 105.757813 536.941406 107.371094 C 538.503906 108.339844 538.398438 110.226563 538.402344 111.832031 C 537.414063 111.832031 536.4375 111.839844 535.46875 111.84375 C 535.117188 110.683594 534.75 109.527344 534.304688 108.402344 C 532.503906 108.476563 530.039063 107.789063 528.914063 109.640625 C 528.300781 112.746094 528.761719 115.960938 528.613281 119.113281 C 528.726563 120.429688 528.417969 122.191406 529.667969 123.058594 C 531.097656 123.738281 532.691406 123.417969 534.1875 123.164063 C 534.707031 121.875 535.101563 120.53125 535.472656 119.191406 C 536.4375 119.195313 537.414063 119.199219 538.398438 119.207031 C 538.433594 121.085938 538.421875 123.382813 536.59375 124.46875 C 533.589844 126.03125 529.585938 126.078125 526.742188 124.152344 C 524.609375 121.796875 525.503906 118.390625 525.320313 115.511719 C 525.433594 112.773438 524.660156 109.238281 527.222656 107.367188 "/>
</g>
<g clip-path="url(#clip5)" clip-rule="nonzero">
<path style=" stroke:none;fill-rule:nonzero;fill:rgb(20.799255%,23.498535%,48.199463%);fill-opacity:1;" d="M 544.0625 107.082031 C 546.914063 105.949219 550.386719 105.824219 553.140625 107.324219 C 554.6875 108.242188 554.648438 110.214844 554.8125 111.785156 C 553.738281 111.816406 552.667969 111.839844 551.605469 111.863281 C 551.410156 110.679688 551.410156 109.1875 550.222656 108.515625 C 548.386719 108.117188 545.546875 107.980469 544.953125 110.273438 C 544.777344 113.828125 544.855469 117.414063 544.921875 120.972656 C 544.984375 124.210938 550.660156 124.503906 551.234375 121.398438 C 551.378906 120.65625 551.5 119.914063 551.597656 119.167969 C 552.65625 119.195313 553.726563 119.21875 554.800781 119.25 C 554.703125 121.175781 554.597656 123.5625 552.675781 124.597656 C 550.023438 125.941406 546.730469 125.894531 544.023438 124.738281 C 542.289063 124.003906 541.609375 122.050781 541.585938 120.296875 C 541.523438 117.53125 541.542969 114.765625 541.578125 112.003906 C 541.65625 110.144531 542.109375 107.839844 544.0625 107.082031 "/>
</g>
<g clip-path="url(#clip6)" clip-rule="nonzero">
<path style=" stroke:none;fill-rule:nonzero;fill:rgb(20.799255%,23.498535%,48.199463%);fill-opacity:1;" d="M 574.042969 106.828125 C 576.953125 105.929688 580.386719 105.914063 583.046875 107.53125 C 583.992188 108.734375 584.03125 110.320313 584.304688 111.769531 C 583.261719 111.808594 582.226563 111.84375 581.191406 111.886719 C 580.851563 110.707031 580.769531 109.273438 579.652344 108.523438 C 578.304688 108.238281 576.914063 108.378906 575.554688 108.402344 C 574.679688 109.492188 573.59375 111.085938 574.824219 112.359375 C 577.058594 114.722656 580.679688 114.917969 583.171875 116.945313 C 585.273438 118.882813 585.050781 122.714844 582.710938 124.359375 C 580.582031 125.5625 578.03125 125.71875 575.648438 125.492188 C 573.921875 125.261719 572.039063 124.640625 571.152344 123.015625 C 570.804688 121.773438 570.644531 120.484375 570.425781 119.21875 C 571.53125 119.167969 572.644531 119.125 573.765625 119.09375 C 573.878906 120.539063 573.808594 122.316406 575.230469 123.183594 C 577.378906 123.851563 581.03125 123.804688 581.28125 120.859375 C 581.5 118.152344 578.410156 117.445313 576.507813 116.519531 C 574.488281 115.582031 571.898438 114.769531 571.1875 112.394531 C 570.394531 110.164063 571.71875 107.4375 574.042969 106.828125 "/>
</g>
<g clip-path="url(#clip7)" clip-rule="nonzero">
<path style=" stroke:none;fill-rule:nonzero;fill:rgb(20.799255%,23.498535%,48.199463%);fill-opacity:1;" d="M 589.058594 107.046875 C 591.839844 105.984375 595.039063 105.929688 597.8125 107.035156 C 599.75 107.75 599.570313 110.128906 599.984375 111.792969 C 598.84375 111.816406 597.707031 111.832031 596.574219 111.851563 C 596.527344 111.09375 596.480469 110.347656 596.449219 109.59375 C 595.089844 108.019531 592.957031 108.304688 591.109375 108.433594 C 590.25 109.464844 589.246094 110.933594 590.285156 112.210938 C 592.804688 115.085938 597.589844 114.769531 599.679688 118.171875 C 600.152344 119.558594 600.023438 121.132813 599.792969 122.566406 C 599.101563 124.480469 596.9375 125.082031 595.148438 125.425781 C 592.535156 125.738281 589.515625 125.722656 587.417969 123.917969 C 586.027344 122.726563 586.363281 120.753906 586.28125 119.128906 C 587.316406 119.128906 588.355469 119.125 589.402344 119.125 C 589.628906 120.449219 589.457031 122.132813 590.644531 123.0625 C 592.527344 123.941406 594.59375 123.390625 596.445313 122.71875 C 596.960938 121.375 597.128906 119.941406 596.449219 118.613281 C 593.980469 117.207031 591.261719 116.300781 588.816406 114.855469 C 585.902344 113.386719 586.007813 108.304688 589.058594 107.046875 "/>
</g>
<g clip-path="url(#clip8)" clip-rule="nonzero">
<path style=" stroke:none;fill-rule:nonzero;fill:rgb(20.799255%,23.498535%,48.199463%);fill-opacity:1;" d="M 386.628906 106.679688 C 387.640625 106.679688 388.660156 106.679688 389.679688 106.679688 C 389.679688 110.820313 389.679688 114.964844 389.675781 119.113281 C 389.632813 120.527344 389.894531 122.164063 391.0625 123.109375 C 392.519531 123.679688 394.109375 123.429688 395.625 123.304688 C 396.203125 122.386719 396.992188 121.492188 396.898438 120.324219 C 397 115.777344 396.898438 111.230469 396.9375 106.679688 C 398.035156 106.679688 399.144531 106.679688 400.257813 106.679688 C 400.222656 111.246094 400.320313 115.808594 400.222656 120.375 C 400.191406 121.875 399.769531 123.515625 398.402344 124.34375 C 395.949219 125.804688 392.859375 125.847656 390.15625 125.167969 C 388.441406 124.757813 386.566406 123.449219 386.699219 121.480469 C 386.527344 116.554688 386.675781 111.613281 386.628906 106.679688 "/>
</g>
<g clip-path="url(#clip9)" clip-rule="nonzero">
<path style=" stroke:none;fill-rule:nonzero;fill:rgb(20.799255%,23.498535%,48.199463%);fill-opacity:1;" d="M 436.117188 106.679688 C 439.765625 106.679688 443.40625 106.679688 447.058594 106.679688 C 447.058594 107.125 447.046875 108.007813 447.046875 108.449219 C 444.503906 108.460938 441.96875 108.457031 439.433594 108.457031 C 439.429688 110.511719 439.429688 112.5625 439.433594 114.617188 C 441.773438 114.617188 444.117188 114.617188 446.464844 114.625 C 446.464844 115.308594 446.476563 115.996094 446.488281 116.683594 C 444.136719 116.699219 441.785156 116.695313 439.433594 116.699219 C 439.429688 118.886719 439.429688 121.078125 439.433594 123.269531 C 442.03125 123.265625 444.636719 123.265625 447.234375 123.269531 C 447.1875 123.96875 447.140625 124.667969 447.105469 125.367188 C 443.441406 125.332031 439.789063 125.367188 436.136719 125.339844 C 436.101563 119.117188 436.136719 112.898438 436.117188 106.679688 "/>
</g>
<g clip-path="url(#clip10)" clip-rule="nonzero">
<path style=" stroke:none;fill-rule:nonzero;fill:rgb(20.799255%,23.498535%,48.199463%);fill-opacity:1;" d="M 473.207031 106.679688 C 476.757813 106.679688 480.304688 106.679688 483.855469 106.679688 C 483.855469 107.125 483.855469 108.011719 483.855469 108.457031 C 481.382813 108.457031 478.90625 108.457031 476.4375 108.449219 C 476.394531 110.429688 475.730469 112.78125 476.679688 114.539063 C 478.953125 114.730469 481.234375 114.582031 483.519531 114.625 C 483.53125 115.304688 483.550781 115.988281 483.570313 116.679688 C 481.167969 116.753906 478.753906 116.519531 476.371094 116.886719 C 476.097656 119.691406 476.316406 122.523438 476.234375 125.351563 C 475.214844 125.34375 474.214844 125.34375 473.214844 125.34375 C 473.207031 119.117188 473.207031 112.898438 473.207031 106.679688 "/>
</g>
<g clip-path="url(#clip11)" clip-rule="nonzero">
<path style=" stroke:none;fill-rule:nonzero;fill:rgb(20.799255%,23.498535%,48.199463%);fill-opacity:1;" d="M 508.230469 106.679688 C 509.304688 106.679688 510.386719 106.679688 511.472656 106.6875 C 511.53125 111.769531 511.265625 116.859375 511.652344 121.933594 C 512.09375 122.386719 512.53125 122.84375 512.976563 123.304688 C 514.449219 123.460938 516.058594 123.703125 517.4375 122.992188 C 518.421875 122.265625 518.460938 120.890625 518.578125 119.78125 C 518.667969 115.417969 518.574219 111.046875 518.609375 106.679688 C 519.683594 106.679688 520.765625 106.679688 521.855469 106.679688 C 521.78125 111.644531 521.988281 116.605469 521.753906 121.566406 C 521.777344 123.648438 519.703125 124.851563 517.921875 125.265625 C 515.304688 125.804688 512.363281 125.757813 510.023438 124.34375 C 508.640625 123.523438 508.214844 121.855469 508.246094 120.351563 C 508.1875 115.796875 508.257813 111.234375 508.230469 106.679688 "/>
</g>
<g clip-path="url(#clip12)" clip-rule="nonzero">
<path style=" stroke:none;fill-rule:nonzero;fill:rgb(20.799255%,23.498535%,48.199463%);fill-opacity:1;" d="M 557.855469 106.679688 C 561.421875 106.679688 564.984375 106.679688 568.558594 106.679688 C 568.558594 107.125 568.554688 108.011719 568.546875 108.449219 C 566 108.46875 563.445313 108.425781 560.90625 108.5 C 560.835938 110.519531 560.859375 112.539063 560.859375 114.558594 C 563.300781 114.640625 565.738281 114.605469 568.1875 114.65625 C 568.144531 115.339844 568.121094 116.019531 568.09375 116.707031 C 565.6875 116.695313 563.273438 116.691406 560.878906 116.714844 C 560.847656 118.886719 560.847656 121.066406 560.882813 123.246094 C 563.566406 123.28125 566.257813 123.253906 568.941406 123.289063 C 568.921875 123.976563 568.902344 124.65625 568.886719 125.339844 C 565.21875 125.359375 561.558594 125.339844 557.890625 125.359375 C 557.804688 119.136719 557.871094 112.902344 557.855469 106.679688 "/>
</g>
<g clip-path="url(#clip13)" clip-rule="nonzero">
<path style=" stroke:none;fill-rule:nonzero;fill:rgb(20.799255%,23.498535%,48.199463%);fill-opacity:1;" d="M 374.3125 108.410156 C 373.605469 109.285156 372.773438 110.199219 372.773438 111.40625 C 372.523438 114.9375 372.550781 118.507813 373.0625 122.019531 C 373.515625 122.441406 373.972656 122.867188 374.421875 123.292969 C 376.074219 123.441406 378.152344 123.828125 379.4375 122.5 C 380.628906 120.386719 380.0625 117.84375 380.199219 115.535156 C 380.085938 113.335938 380.671875 110.753906 379.121094 108.929688 C 377.730469 107.972656 375.890625 108.476563 374.3125 108.410156 Z M 374.527344 106.390625 C 376.960938 106.035156 379.585938 106.335938 381.742188 107.582031 C 383.269531 108.753906 383.273438 110.890625 383.441406 112.644531 C 383.453125 115.984375 383.722656 119.386719 382.984375 122.671875 C 382.238281 124.710938 379.839844 125.324219 377.902344 125.519531 C 375.433594 125.652344 372.597656 125.582031 370.617188 123.910156 C 369.351563 121.984375 369.605469 119.546875 369.574219 117.351563 C 369.652344 114.855469 369.402344 112.332031 369.753906 109.847656 C 370.15625 107.621094 372.550781 106.703125 374.527344 106.390625 "/>
</g>
<g clip-path="url(#clip14)" clip-rule="nonzero">
<path style=" stroke:none;fill-rule:nonzero;fill:rgb(20.799255%,23.498535%,48.199463%);fill-opacity:1;" d="M 406.894531 108.484375 C 406.871094 110.59375 406.714844 112.722656 407.003906 114.816406 C 409.195313 115.285156 411.367188 114.5625 413.382813 113.746094 C 413.480469 112.429688 413.980469 111.003906 413.359375 109.753906 C 411.789063 107.816406 409.039063 108.585938 406.894531 108.484375 Z M 403.53125 106.679688 C 407.003906 106.769531 410.492188 106.488281 413.953125 106.847656 C 416.867188 107.359375 417.425781 111.023438 416.558594 113.367188 C 416.128906 114.8125 414.46875 115.078125 413.308594 115.714844 C 414.53125 116.238281 416.242188 116.824219 416.261719 118.449219 C 416.328125 120.765625 416.351563 123.097656 417.015625 125.34375 C 415.945313 125.351563 414.890625 125.359375 413.835938 125.378906 C 413.21875 122.957031 413.425781 120.417969 412.824219 117.984375 C 411.246094 116.339844 408.917969 116.699219 406.855469 116.691406 C 406.851563 119.582031 406.867188 122.472656 406.839844 125.359375 C 405.734375 125.351563 404.640625 125.34375 403.550781 125.324219 C 403.519531 119.113281 403.550781 112.898438 403.53125 106.679688 "/>
</g>
<g clip-path="url(#clip15)" clip-rule="nonzero">
<path style=" stroke:none;fill-rule:nonzero;fill:rgb(20.799255%,23.498535%,48.199463%);fill-opacity:1;" d="M 460.945313 108.476563 C 460.484375 108.925781 460.027344 109.375 459.570313 109.816406 C 459.191406 113.847656 459.238281 117.910156 459.585938 121.933594 C 460.019531 122.382813 460.472656 122.832031 460.914063 123.289063 C 462.691406 123.648438 464.480469 123.394531 466.15625 122.714844 C 466.898438 120.597656 466.640625 118.34375 466.679688 116.148438 C 466.628906 113.765625 466.925781 111.3125 466.15625 109 C 464.488281 108.351563 462.703125 108.214844 460.945313 108.476563 Z M 456.777344 108.699219 C 458.445313 106.359375 461.730469 106.136719 464.355469 106.316406 C 466.605469 106.589844 469.617188 107.441406 469.730469 110.191406 C 470.113281 114.476563 470.105469 118.851563 469.539063 123.121094 C 467.394531 125.691406 463.761719 125.816406 460.695313 125.414063 C 459.1875 125.152344 457.367188 124.675781 456.777344 123.082031 C 455.710938 120.71875 456.222656 118.050781 456.101563 115.546875 C 456.214844 113.273438 455.710938 110.820313 456.777344 108.699219 "/>
</g>
</g>
</svg>
